<?xml version="1.0" encoding="UTF-8"?>
<svg id="_レイヤー_1" data-name="レイヤー 1" xmlns="http://www.w3.org/2000/svg" viewBox="0 0 106.5 72.61">
  <defs>
    <style>
      .cls-1, .cls-2 {
        fill: none;
      }

      .cls-1, .cls-2, .cls-3 {
        stroke-linecap: round;
      }

      .cls-1, .cls-2, .cls-3, .cls-4 {
        stroke: #231815;
        stroke-width: 4px;
      }

      .cls-1, .cls-3, .cls-4 {
        stroke-linejoin: round;
      }

      .cls-2 {
        stroke-miterlimit: 10;
      }

      .cls-3 {
        fill: #d5d5d6;
      }

      .cls-4 {
        fill: #84b6cf;
      }
    </style>
  </defs>
  <line class="cls-2" x1="30.23" y1="10.42" x2="30.23" y2="2"/>
  <path class="cls-1" d="M17.77,65.07l.61,1.47c1.57,3.76,6.31,5.34,9.57,2.89.55-.41,1-.9,1.32-1.46.34-.61.56-1.29.59-2.05h0s.37-26.22.37-26.22"/>
  <path class="cls-4" d="M58.46,38.28c0-15.92-12.64-28.83-28.23-28.83S2,22.36,2,38.28h56.46Z"/>
  <path class="cls-3" d="M91.6,70.61c5.62,0,10.79-3.53,12.39-8.92,2.28-7.67-3.4-14.67-10.72-14.67-.12,0-.23.01-.34.02.56-2.16.52-4.56-.77-7.13-1.58-3.15-4.64-5.44-8.14-5.82-3-.32-5.78.64-7.86,2.39-2.27-6.35-8.82-10.67-16.19-9.42-5.4.92-9.88,4.98-11.39,10.24-.88,3.09-.7,6.04.19,8.67-.45-.05-.91-.08-1.38-.08-6.95,0-12.56,5.74-12.35,12.74s6.1,11.98,12.87,11.98c11.01,0,33.23,0,43.69,0Z"/>
</svg>