<?xml version="1.0" encoding="UTF-8"?>
<svg id="_レイヤー_1" data-name="レイヤー 1" xmlns="http://www.w3.org/2000/svg" viewBox="0 0 74.27 89.05">
  <defs>
    <style>
      .cls-1, .cls-2 {
        fill: none;
        stroke-linecap: round;
      }

      .cls-1, .cls-2, .cls-3 {
        stroke: #231815;
        stroke-width: 4px;
      }

      .cls-1, .cls-3 {
        stroke-linejoin: round;
      }

      .cls-2 {
        stroke-miterlimit: 10;
      }

      .cls-3 {
        fill: #84b6cf;
      }
    </style>
  </defs>
  <line class="cls-2" x1="55.19" y1="7.2" x2="51.91" y2="16.23"/>
  <line class="cls-2" x1="72.27" y1="18.77" x2="64.74" y2="39.5"/>
  <line class="cls-2" x1="20.03" y1="4.87" x2="12.51" y2="25.59"/>
  <line class="cls-2" x1="32.09" y1="2" x2="28.05" y2="13.14"/>
  <line class="cls-2" x1="58.25" y1="21.7" x2="55.44" y2="29.44"/>
  <line class="cls-2" x1="39.49" y1="10.23" x2="36.67" y2="17.97"/>
  <line class="cls-2" x1="38.05" y1="32.09" x2="40.92" y2="24.18"/>
  <path class="cls-1" d="M7.67,79.21l.07,1.59c.19,4.07,4.11,7.18,8.01,5.99.66-.2,1.25-.51,1.74-.92.53-.46.97-1.02,1.25-1.72h0s9.3-24.52,9.3-24.52"/>
  <path class="cls-3" d="M55.07,67.92c5.44-14.97-2.03-31.41-16.69-36.74S7.44,33.68,2,48.64l53.07,19.28Z"/>
</svg>