<?xml version="1.0" encoding="UTF-8"?>
<svg id="_レイヤー_1" data-name="レイヤー 1" xmlns="http://www.w3.org/2000/svg" viewBox="0 0 97.41 66.8">
  <defs>
    <style>
      .cls-1 {
        fill: #f39a5d;
      }

      .cls-1, .cls-2 {
        stroke-miterlimit: 10;
      }

      .cls-1, .cls-2, .cls-3 {
        stroke: #231815;
        stroke-width: 4px;
      }

      .cls-2 {
        fill: none;
      }

      .cls-2, .cls-3 {
        stroke-linecap: round;
      }

      .cls-3 {
        fill: #d5d5d6;
        stroke-linejoin: round;
      }
    </style>
  </defs>
  <path class="cls-3" d="M64.07,23.65c.6-2.32.56-4.89-.82-7.64-1.7-3.37-4.97-5.84-8.73-6.24-3.22-.35-6.2.68-8.43,2.57-2.43-6.81-9.45-11.44-17.36-10.1-5.79.98-10.59,5.34-12.21,10.98-.95,3.31-.75,6.48.2,9.3-.49-.05-.98-.09-1.48-.09-7.45,0-13.47,6.15-13.25,13.66.22,7.25,6.54,12.84,13.8,12.84,11.8,0,31.42,0,42.64,0"/>
  <circle class="cls-1" cx="69.68" cy="39.18" r="10.76"/>
  <line class="cls-2" x1="69.68" y1="15.51" x2="69.68" y2="21.99"/>
  <line class="cls-2" x1="95.41" y1="39.18" x2="88.93" y2="39.18"/>
  <line class="cls-2" x1="69.68" y1="64.8" x2="69.68" y2="58.33"/>
  <line class="cls-2" x1="52.25" y1="22.73" x2="56.83" y2="27.31"/>
  <line class="cls-2" x1="87.11" y1="57.59" x2="82.53" y2="53.01"/>
  <line class="cls-2" x1="45.03" y1="40.16" x2="51.51" y2="40.16"/>
  <line class="cls-2" x1="52.25" y1="57.59" x2="56.83" y2="53.01"/>
  <line class="cls-2" x1="87.11" y1="22.73" x2="82.53" y2="27.31"/>
</svg>