<?xml version="1.0" encoding="UTF-8"?>
<svg id="_レイヤー_1" data-name="レイヤー 1" xmlns="http://www.w3.org/2000/svg" viewBox="0 0 78.48 50.93">
  <defs>
    <style>
      .cls-1 {
        fill: #d5d5d6;
        stroke: #231815;
        stroke-linecap: round;
        stroke-linejoin: round;
        stroke-width: 4px;
      }
    </style>
  </defs>
  <path class="cls-1" d="M62.65,48.93c6.03,0,11.57-3.79,13.29-9.57,2.45-8.22-3.65-15.73-11.5-15.73-.12,0-.24.01-.37.02.6-2.32.56-4.89-.82-7.64-1.7-3.37-4.97-5.84-8.73-6.24-3.22-.35-6.2.68-8.43,2.57-2.43-6.81-9.45-11.44-17.36-10.1-5.79.98-10.59,5.34-12.21,10.98-.95,3.31-.75,6.48.2,9.3-.49-.05-.98-.09-1.48-.09-7.45,0-13.47,6.15-13.25,13.66.22,7.25,6.54,12.84,13.8,12.84,11.8,0,35.63,0,46.84,0Z"/>
</svg>